paper_minjerk_fatigue_10cycle_first
version=1
nRows=389
nColumns=3
inDegrees=yes
endheader
time	r_shoulder_elev	r_elbow_flex
19.9900	20.000000	103.648327
20.0000	20.000000	103.873112
20.0100	20.000000	104.294422
20.0200	20.000000	105.370453
20.0300	20.000000	105.876457
20.0400	20.000000	106.059563
20.0500	20.000000	106.231676
20.0600	20.000000	106.640684
20.0700	20.000000	106.495433
20.0800	20.000000	106.199922
20.0900	20.000000	106.337822
20.1000	20.000000	105.933477
20.1100	20.000000	106.030273
20.1200	20.000000	106.019114
20.1300	20.000000	106.002935
20.1400	20.000000	106.453299
20.1500	20.000000	107.221793
20.1600	20.000000	107.262481
20.1700	20.000000	107.800503
20.1800	20.000000	108.121199
20.1900	20.000000	108.815798
20.2000	20.000000	108.929337
20.2100	20.000000	109.148440
20.2200	20.000000	109.061231
20.2300	20.000000	108.781754
20.2400	20.000000	108.624652
20.2500	20.000000	108.685893
20.2600	20.000000	108.288894
20.2700	20.000000	108.215815
20.2800	20.000000	107.421503
20.2900	20.000000	108.095202
20.3000	20.000000	107.900462
20.3100	20.000000	108.523472
20.3200	20.000000	108.339968
20.3300	20.000000	108.745434
20.3400	20.000000	109.177016
20.3500	20.000000	109.214511
20.3600	20.000000	109.727545
20.3700	20.000000	109.594728
20.3800	20.000000	109.920220
20.3900	20.000000	109.724138
20.4000	20.000000	109.461267
20.4100	20.000000	108.888889
20.4200	20.000000	108.888889
20.4300	20.000000	108.888889
20.4400	20.000000	108.888889
20.4500	20.000000	108.888889
20.4600	20.000000	108.888889
20.4700	20.000000	108.888889
20.4800	20.000000	108.888889
20.4900	20.000000	108.888889
20.5000	20.000000	108.888889
20.5100	20.000000	108.888889
20.5200	20.000000	108.888889
20.5300	20.000000	108.888889
20.5400	20.000000	108.888889
20.5500	20.000000	108.888889
20.5600	20.000000	108.888889
20.5700	20.000000	108.888889
20.5800	20.000000	108.888889
20.5900	20.000000	108.888889
20.6000	20.000000	108.888889
20.6100	20.000000	108.064583
20.6200	20.000000	108.034997
20.6300	20.000000	108.118528
20.6400	20.000000	107.840465
20.6500	20.000000	108.293195
20.6600	20.000000	108.811078
20.6700	20.000000	108.735912
20.6800	20.000000	109.431087
20.6900	20.000000	109.319209
20.7000	20.000000	109.584382
20.7100	20.000000	109.324307
20.7200	20.000000	109.453499
20.7300	20.000000	109.189242
20.7400	20.000000	108.948007
20.7500	20.000000	108.574192
20.7600	20.000000	108.133113
20.7700	20.000000	107.562876
20.7800	20.000000	106.992142
20.7900	20.000000	107.175347
20.8000	20.000000	106.595704
20.8100	20.000000	106.692394
20.8200	20.000000	106.913324
20.8300	20.000000	106.927633
20.8400	20.000000	107.178611
20.8500	20.000000	106.923841
20.8600	20.000000	106.566266
20.8700	20.000000	106.607190
20.8800	20.000000	106.352494
20.8900	20.000000	105.800542
20.9000	20.000000	105.510914
20.9100	20.000000	104.561675
20.9200	20.000000	103.641551
20.9300	20.000000	103.230737
20.9400	20.000000	102.269561
20.9500	20.000000	102.121654
20.9600	20.000000	101.351578
20.9700	20.000000	100.637165
20.9800	20.000000	100.700840
20.9900	20.000000	100.625433
21.0000	20.000000	99.628971
21.0100	20.000000	99.825778
21.0200	20.000000	99.405172
21.0300	20.000000	98.903127
21.0400	20.000000	98.354964
21.0500	20.000000	97.667506
21.0600	20.000000	96.627459
21.0700	20.000000	96.026631
21.0800	20.000000	94.540235
21.0900	20.000000	94.032504
21.1000	20.000000	92.912974
21.1100	20.000000	91.464378
21.1200	20.000000	90.746720
21.1300	20.000000	90.168223
21.1400	20.000000	89.132545
21.1500	20.000000	88.553247
21.1600	20.000000	87.932773
21.1700	20.000000	87.628312
21.1800	20.000000	86.737451
21.1900	20.000000	86.171990
21.2000	20.000000	85.495190
21.2100	20.000000	84.478122
21.2200	20.000000	83.346983
21.2300	20.000000	82.129035
21.2400	20.000000	80.869755
21.2500	20.000000	79.642891
21.2600	20.000000	78.259735
21.2700	20.000000	77.166251
21.2800	20.000000	76.149925
21.2900	20.000000	75.019394
21.3000	20.000000	73.892635
21.3100	20.000000	72.985450
21.3200	20.000000	72.198471
21.3300	20.000000	71.392696
21.3400	20.000000	70.688014
21.3500	20.000000	70.249930
21.3600	20.000000	69.061518
21.3700	20.000000	68.361777
21.3800	20.000000	67.202200
21.3900	20.000000	66.539908
21.4000	20.000000	64.566351
21.4100	20.000000	63.559895
21.4200	20.000000	62.105506
21.4300	20.000000	60.682130
21.4400	20.000000	59.571166
21.4500	20.000000	58.345467
21.4600	20.000000	57.057021
21.4700	20.000000	56.342748
21.4800	20.000000	55.483742
21.4900	20.000000	54.869832
21.5000	20.000000	53.831778
21.5100	20.000000	53.467077
21.5200	20.000000	52.442030
21.5300	20.000000	51.326193
21.5400	20.000000	50.826118
21.5500	20.000000	49.701165
21.5600	20.000000	48.442059
21.5700	20.000000	47.539268
21.5800	20.000000	46.054373
21.5900	20.000000	45.048641
21.6000	20.000000	43.652832
21.6100	20.000000	42.660637
21.6200	20.000000	41.629876
21.6300	20.000000	40.705288
21.6400	20.000000	39.693479
21.6500	20.000000	39.371443
21.6600	20.000000	38.658523
21.6700	20.000000	38.470189
21.6800	20.000000	37.699356
21.6900	20.000000	37.188095
21.7000	20.000000	36.305601
21.7100	20.000000	35.641677
21.7200	20.000000	34.902753
21.7300	20.000000	33.781065
21.7400	20.000000	32.808966
21.7500	20.000000	31.989483
21.7600	20.000000	31.017243
21.7700	20.000000	30.148966
21.7800	20.000000	29.486235
21.7900	20.000000	28.543789
21.8000	20.000000	28.171249
21.8100	20.000000	27.612390
21.8200	20.000000	27.293363
21.8300	20.000000	27.134540
21.8400	20.000000	26.548237
21.8500	20.000000	26.696531
21.8600	20.000000	26.323499
21.8700	20.000000	25.941071
21.8800	20.000000	25.353304
21.8900	20.000000	25.071275
21.9000	20.000000	24.231055
21.9100	20.000000	24.039337
21.9200	20.000000	23.195804
21.9300	20.000000	22.331315
21.9400	20.000000	21.951471
21.9500	20.000000	21.751245
21.9600	20.000000	21.218432
21.9700	20.000000	21.098505
21.9800	20.000000	21.035998
21.9900	20.000000	21.126478
22.0000	20.000000	20.975591
22.0100	20.000000	21.379471
22.0200	20.000000	21.395723
22.0300	20.000000	22.018663
22.0400	20.000000	21.438049
22.0500	20.000000	21.242803
22.0600	20.000000	21.231499
22.0700	20.000000	20.711986
22.0800	20.000000	20.407709
22.0900	20.000000	19.844451
22.1000	20.000000	19.914071
22.1100	20.000000	19.293846
22.1200	20.000000	19.312550
22.1300	20.000000	19.413345
22.1400	20.000000	19.270549
22.1500	20.000000	19.522775
22.1600	20.000000	19.895709
22.1700	20.000000	20.219677
22.1800	20.000000	20.219926
22.1900	20.000000	20.000000
22.2000	20.000000	20.000000
22.2100	20.000000	20.000000
22.2200	20.000000	20.000000
22.2300	20.000000	20.000000
22.2400	20.000000	20.000000
22.2500	20.000000	20.000000
22.2600	20.000000	20.000000
22.2700	20.000000	20.000000
22.2800	20.000000	20.000000
22.2900	20.000000	20.000000
22.3000	20.000000	20.000000
22.3100	20.000000	20.000000
22.3200	20.000000	20.000000
22.3300	20.000000	20.000000
22.3400	20.000000	20.000000
22.3500	20.000000	20.000000
22.3600	20.000000	20.000000
22.3700	20.000000	20.000000
22.3800	20.000000	20.000000
22.3900	20.000000	20.880625
22.4000	20.000000	20.398790
22.4100	20.000000	20.100244
22.4200	20.000000	19.747094
22.4300	20.000000	19.766398
22.4400	20.000000	19.558415
22.4500	20.000000	19.586531
22.4600	20.000000	19.016679
22.4700	20.000000	18.965458
22.4800	20.000000	19.176088
22.4900	20.000000	20.027655
22.5000	20.000000	19.790506
22.5100	20.000000	20.431305
22.5200	20.000000	20.731133
22.5300	20.000000	21.453005
22.5400	20.000000	21.037387
22.5500	20.000000	21.463040
22.5600	20.000000	21.380521
22.5700	20.000000	20.857766
22.5800	20.000000	20.696440
22.5900	20.000000	19.997087
22.6000	20.000000	20.030724
22.6100	20.000000	19.838804
22.6200	20.000000	19.325503
22.6300	20.000000	20.029861
22.6400	20.000000	20.269149
22.6500	20.000000	20.237555
22.6600	20.000000	20.762827
22.6700	20.000000	21.407966
22.6800	20.000000	21.955654
22.6900	20.000000	22.445108
22.7000	20.000000	22.660461
22.7100	20.000000	22.871816
22.7200	20.000000	23.225118
22.7300	20.000000	23.041530
22.7400	20.000000	23.001367
22.7500	20.000000	22.820864
22.7600	20.000000	22.812032
22.7700	20.000000	22.605034
22.7800	20.000000	22.829513
22.7900	20.000000	22.836146
22.8000	20.000000	23.301865
22.8100	20.000000	23.825611
22.8200	20.000000	23.854546
22.8300	20.000000	24.979273
22.8400	20.000000	25.827427
22.8500	20.000000	25.927587
22.8600	20.000000	26.694576
22.8700	20.000000	27.099966
22.8800	20.000000	27.602249
22.8900	20.000000	27.832962
22.9000	20.000000	27.701549
22.9100	20.000000	28.131931
22.9200	20.000000	27.707254
22.9300	20.000000	27.887744
22.9400	20.000000	28.234605
22.9500	20.000000	28.653214
22.9600	20.000000	28.536093
22.9700	20.000000	29.321169
22.9800	20.000000	29.871631
22.9900	20.000000	30.279855
23.0000	20.000000	31.235310
23.0100	20.000000	32.024888
23.0200	20.000000	32.962366
23.0300	20.000000	33.690006
23.0400	20.000000	34.371391
23.0500	20.000000	35.082677
23.0600	20.000000	35.248349
23.0700	20.000000	35.931791
23.0800	20.000000	35.530854
23.0900	20.000000	35.906712
23.1000	20.000000	36.044417
23.1100	20.000000	36.566354
23.1200	20.000000	36.619518
23.1300	20.000000	37.440472
23.1400	20.000000	38.319174
23.1500	20.000000	38.697378
23.1600	20.000000	39.764795
23.1700	20.000000	40.861109
23.1800	20.000000	41.643318
23.1900	20.000000	42.464562
23.2000	20.000000	43.814068
23.2100	20.000000	44.082535
23.2200	20.000000	45.022474
23.2300	20.000000	45.000305
23.2400	20.000000	45.396793
23.2500	20.000000	45.887990
23.2600	20.000000	45.983340
23.2700	20.000000	46.197879
23.2800	20.000000	46.688141
23.2900	20.000000	47.473218
23.3000	20.000000	48.016989
23.3100	20.000000	49.037508
23.3200	20.000000	49.550703
23.3300	20.000000	50.944608
23.3400	20.000000	52.095771
23.3500	20.000000	53.073681
23.3600	20.000000	53.942792
23.3700	20.000000	54.814776
23.3800	20.000000	55.720611
23.3900	20.000000	56.583782
23.4000	20.000000	56.470526
23.4100	20.000000	57.078577
23.4200	20.000000	57.680023
23.4300	20.000000	57.921753
23.4400	20.000000	58.275643
23.4500	20.000000	58.753391
23.4600	20.000000	59.530049
23.4700	20.000000	60.332131
23.4800	20.000000	60.867754
23.4900	20.000000	62.211173
23.5000	20.000000	63.065596
23.5100	20.000000	64.814869
23.5200	20.000000	65.770351
23.5300	20.000000	66.400679
23.5400	20.000000	67.543970
23.5500	20.000000	68.556230
23.5600	20.000000	68.490587
23.5700	20.000000	69.314075
23.5800	20.000000	69.496375
23.5900	20.000000	69.726647
23.6000	20.000000	69.935671
23.6100	20.000000	70.508682
23.6200	20.000000	71.119842
23.6300	20.000000	71.449718
23.6400	20.000000	72.867875
23.6500	20.000000	73.661602
23.6600	20.000000	74.860963
23.6700	20.000000	75.759586
23.6800	20.000000	77.495801
23.6900	20.000000	77.545524
23.7000	20.000000	78.558549
23.7100	20.000000	79.616154
23.7200	20.000000	80.531721
23.7300	20.000000	80.314298
23.7400	20.000000	81.229948
23.7500	20.000000	80.974826
23.7600	20.000000	81.705335
23.7700	20.000000	81.795974
23.7800	20.000000	82.651176
23.7900	20.000000	83.106645
23.8000	20.000000	83.299466
23.8100	20.000000	84.821819
23.8200	20.000000	84.916880
23.8300	20.000000	86.046650
23.8400	20.000000	87.449011
23.8500	20.000000	87.876223
23.8600	20.000000	88.740556
23.8700	20.000000	89.614303
